<svg xmlns="http://www.w3.org/2000/svg" width="463" height="459" viewBox="0 0 463 459"><path fill="#cf968b" d="M225.228 136.128c50.251-1.214 91.973 38.538 93.188 88.79 1.215 50.251-38.535 91.973-88.787 93.19s-91.978-38.535-93.193-88.789 38.538-91.977 88.792-93.191m6.648 173.325c45.411-2.399 80.297-41.128 77.953-86.543-2.344-45.414-41.031-80.347-86.448-78.058-45.496 2.292-80.502 41.061-78.154 86.553 2.348 45.493 41.159 80.452 86.649 78.048"/><defs><linearGradient id="a" x1="233.636" x2="220.699" y1="386.309" y2="383.761" gradientUnits="userSpaceOnUse"><stop offset="0" stop-color="#ceb3a1" stop-opacity=".988"/><stop offset="1" stop-color="#e08f90"/></linearGradient></defs><path fill="url(#a)" d="M225.972 390.795c.482-3.254.04-6.291.295-9.37.32.642.404.968 1.003 1.363 1.491-1.309.328-7.333.411-9.556.078-2.107.737-4.615.79-6.506.107-3.812-.464-8.032-.476-11.89-.004-1.338-.886-2.015-.699-3.964.382-.713.239-.483 1.103-.913.982 1.041.152 6.098.862 8.188.218 6.506-1.013 62.098-2.215 63.759-1.032-2.971-1.071-26.36-1.074-31.111"/><path fill="#cf968b" d="M225.972 390.795c-.3-2.226-.209-5.324-.233-7.664l-.192-11.445-.218-14.1c-.03-1.651-.618-9.892.742-10.815 3.833-2.6 3.515 3.054 3.375 5.388-.101 1.693-.122 4.193-.185 5.988-.71-2.09.12-7.147-.862-8.188-.864.43-.721.2-1.103.913-.187 1.949.695 2.626.699 3.964.012 3.858.583 8.078.476 11.89-.053 1.891-.712 4.399-.79 6.506-.083 2.223 1.08 8.247-.411 9.556-.599-.395-.683-.721-1.003-1.363-.255 3.079.187 6.116-.295 9.37M105.517 224.607c1.693.015 3.493-.002 3.821 2.316.115.353-.295 1.255-.616 1.426-2.989 1.592-10.388.842-13.645.758l-14.75-.312q-21.887-.389-43.764-1.187c-1.883-.047-3.474.019-5.298-.486 1.807-.892 26.517-1.019 30.222-1.129q22.01-.85 44.03-1.386M93.73 92.428c15.396 15.097 32.059 29.074 47.05 44.668 1.611 1.676 4.948 3.912 2.894 6.488-3.497 1.045-10.455-7.368-12.814-9.832l-14.798-15.773-22.704-23.996zM312.335 310.443c1.396.346 2.757.855 3.796 1.88 12.615 12.447 24.029 26.011 36.247 38.84 2.027 2.128 13.93 14.011 14.057 15.918l-.459-.023c-2.706-2.47-5.386-5.37-8.099-7.939a1549 1549 0 0 1-28.409-27.228c-5.738-5.616-11.822-11.174-17.316-17.048-1.363-1.457-1.434-3.086.183-4.4M365.381 88.771c.106 1.447-45.919 50.259-51.001 54.622-.684.586-1.989.136-2.782-.071-.416-.611-.76-1.334-.564-2.055.18-.782.613-1.469 1.186-2.028 3.621-3.534 7.319-7.003 10.983-10.491l18.433-17.752a1820 1820 0 0 1 14.957-14.35c2.249-2.144 6.394-6.31 8.788-7.875M91.773 362.771a2361 2361 0 0 1 32.722-35.222c3.679-3.892 7.32-7.821 10.997-11.713 1.641-1.737 5.538-6.643 8.176-5.137 1.236 1.59.345 3.495-.929 4.731-5.067 4.92-10.28 9.692-15.402 14.56l-34.972 33.381zM227.344 33.184c.968 6.085 3.086 71.83 1.927 74.586-.273.649-1.005.888-1.604 1.153-2.934-.514-2.362-3.134-2.341-5.801.108-14.015.552-28.318.866-42.296.103-4.592-.159-25.187 1.152-27.642M350.684 224.848l39.02 1.156c5.046.113 10.128.099 15.171.34 2.888.138 6.183.014 8.946.725-2.304.22-4.509.291-6.817.378-17.787.099-35.839 2.054-53.668 1.835-2.316-.028-6.615.222-8.074-1.858-.057-2.451 3.76-2.489 5.422-2.576"/><path fill="#e5dcdf" fill-opacity=".945" d="M88.456 87.673c2.033 1.43 3.528 3.012 5.274 4.755l-.372 1.555c-1.753-2.169-3.344-3.984-4.902-6.31"/><path fill="#e5dcdf" fill-opacity=".941" d="M88.5 366.888c1.142-1.764 1.802-2.646 3.273-4.117l.592.6c-1.305 1.316-2.453 2.308-3.866 3.517"/></svg>